<svg xmlns="http://www.w3.org/2000/svg" viewBox="0 0 512 512" version="1.1">
	<path d="M 242.500 42.241 C 240.850 42.836, 236.800 44.799, 233.500 46.603 C 229.553 48.760, 223.921 50.608, 217.042 52.002 C 197.978 55.868, 179.918 62.447, 152 75.695 C 134.847 83.836, 133 84.823, 133 85.851 C 133 86.280, 134.814 87.651, 137.031 88.897 C 142.553 92.001, 151.943 100.860, 160.257 110.810 C 166.514 118.299, 167.140 119.441, 166.591 122.367 C 165.461 128.388, 156.586 141.150, 147.339 150.051 C 136.791 160.205, 125.683 167.766, 107.193 177.380 C 95.152 183.641, 93.500 184.802, 93.500 187 L 93.500 189.500 125 190.036 C 142.325 190.330, 156.613 190.668, 156.750 190.786 C 158.329 192.139, 151.607 220.359, 145.503 238 C 140.464 252.565, 131.242 270.814, 123.521 281.500 C 119.945 286.450, 117.014 290.890, 117.009 291.367 C 117.004 291.843, 118.237 291.931, 119.750 291.561 C 121.263 291.191, 128.912 290.632, 136.750 290.318 C 153.355 289.654, 152.593 288.965, 148.511 300.969 C 145.427 310.034, 142.003 315.978, 137.852 319.471 C 136.100 320.945, 129.453 324.780, 123.083 327.992 C 106.267 336.470, 107.099 335.237, 112.740 343.317 C 140.363 382.884, 166.655 411.005, 198.748 435.309 C 218.533 450.292, 251.795 471, 256.077 471 C 257.928 471, 281.291 457.144, 297.500 446.432 C 331.487 423.973, 365.135 390.237, 392.947 350.739 C 397.501 344.270, 401.627 338.731, 402.114 338.430 C 404.615 336.884, 401.843 334.611, 390.023 328.512 C 371.911 319.167, 369.842 317.497, 365.591 308.802 C 363.627 304.786, 361.401 299.025, 360.644 296 L 359.268 290.500 369.884 290.192 C 375.723 290.022, 383.131 290.391, 386.347 291.011 C 389.563 291.631, 392.404 291.929, 392.660 291.673 C 392.916 291.417, 389.741 286.232, 385.603 280.151 C 377.308 267.961, 370.902 255.335, 364.886 239.318 C 360.177 226.782, 353.523 203.598, 352.525 196.250 L 351.812 191 356.156 190.933 C 398.037 190.290, 416.470 189.828, 417.158 189.402 C 417.621 189.116, 418 188.048, 418 187.030 C 418 185.682, 414.796 183.491, 406.250 178.994 C 373.039 161.515, 351.248 142.308, 344.458 124.529 L 342.801 120.190 350.275 111.345 C 359.088 100.915, 366.961 93.312, 372.696 89.692 C 374.971 88.256, 377.126 86.605, 377.486 86.022 C 377.880 85.385, 372.239 82.140, 363.320 77.875 C 330.302 62.083, 309.346 54.274, 292.500 51.486 C 284.842 50.218, 281.212 49.054, 277 46.515 C 273.975 44.692, 269.700 42.707, 267.500 42.106 C 262.447 40.723, 246.465 40.810, 242.500 42.241 M 226.500 67.141 C 212.186 68.796, 180.911 76.716, 179.468 79.052 C 178.622 80.420, 181.768 80.200, 187.370 78.501 C 195.894 75.915, 215.050 72.205, 229.271 70.385 C 237.841 69.289, 242.910 68.222, 242.693 67.562 C 242.232 66.158, 236.330 66.005, 226.500 67.141 M 268 67.314 C 268 68.248, 271.869 69.128, 281.374 70.356 C 296.298 72.284, 314.654 75.902, 324.501 78.856 C 333.208 81.468, 333.737 79.839, 325.236 76.590 C 306.314 69.360, 268 63.150, 268 67.314 M 223 84.496 C 212.805 86.250, 202.687 88.686, 198.736 90.337 C 195.664 91.620, 195.190 92.533, 191.066 105.102 C 188.649 112.471, 184.106 123.563, 180.971 129.750 C 177.836 135.938, 175.548 140.997, 175.886 140.993 C 176.224 140.989, 180.596 139.440, 185.603 137.552 C 221.997 123.822, 269.516 121.677, 307.772 132.037 C 313.699 133.642, 322.298 136.835, 333.826 141.711 C 334.555 142.020, 332.486 136.924, 329.228 130.386 C 322.730 117.350, 318.800 107.545, 316.179 97.834 L 314.471 91.505 308.393 89.339 C 300.903 86.669, 279.557 82.958, 272.625 83.120 L 267.500 83.240 272 84.214 C 291.921 88.527, 302.961 92.691, 309.794 98.467 C 314.618 102.545, 319.011 112, 316.082 112 C 313.874 112, 312 110.654, 312 109.067 C 312 106.384, 308.224 103.483, 299 99.080 C 286.352 93.043, 285.042 92.956, 279.834 97.813 C 277.457 100.031, 275.734 101.995, 276.006 102.179 C 276.278 102.363, 283.048 104.675, 291.051 107.318 C 310.016 113.582, 319.534 118.188, 322.055 122.323 C 326.442 129.517, 323.876 130.655, 313.633 126.060 C 303.011 121.294, 289.389 117.333, 275.500 114.972 C 249.605 110.571, 222.447 114.336, 196.379 125.943 C 191.540 128.097, 187.226 129.640, 186.791 129.371 C 186.356 129.102, 186 127.599, 186 126.030 C 186 120.270, 196.875 114.185, 220 107.005 C 227.425 104.700, 233.903 102.721, 234.396 102.608 C 234.889 102.495, 232.907 100.504, 229.992 98.183 C 226.211 95.172, 224.092 94.127, 222.596 94.535 C 221.443 94.850, 215.775 97.446, 210 100.304 C 202.913 103.811, 199.111 106.299, 198.304 107.958 C 196.840 110.967, 193.164 112.592, 192.389 110.572 C 191.553 108.392, 194.546 103.548, 199.224 99.509 C 205.398 94.180, 215.497 89.384, 226.648 86.487 C 231.997 85.097, 236.589 83.744, 236.853 83.480 C 237.684 82.649, 230.794 83.154, 223 84.496 M 231 141.048 C 209.706 143.628, 188.715 150.016, 168.500 160.068 C 153.866 167.344, 139.474 175.970, 141.934 175.989 C 142.723 175.995, 152.239 173.537, 163.081 170.527 C 199.931 160.295, 221.803 156.990, 252.494 157.016 C 273.565 157.033, 290.638 158.196, 305 160.590 C 312.848 161.899, 360.127 173.412, 366.623 175.596 C 372.021 177.412, 360.770 170.182, 347.862 163.541 C 325.926 152.254, 309.436 146.436, 287.854 142.369 C 277.968 140.505, 242.315 139.678, 231 141.048 M 225 177.678 C 205.824 179.078, 163.209 186.723, 160.500 189.250 C 159.880 189.829, 163.107 189.948, 169 189.564 C 217.565 186.401, 294.229 186.390, 339.250 189.538 C 344.468 189.903, 348 189.771, 348 189.212 C 348 187.193, 309.198 179.975, 288 178.051 C 277.607 177.107, 236.176 176.862, 225 177.678 M 183 205.818 C 183 217.404, 218.401 234.711, 240.250 233.806 C 247.972 233.486, 248 233.494, 248 236.032 C 248 240.103, 245.234 249.604, 242.450 255.099 C 237.403 265.058, 241.102 268.997, 255.500 268.997 C 264.024 268.997, 270.227 266.936, 270.788 263.919 C 270.950 263.049, 269.477 260.124, 267.516 257.419 C 262.297 250.220, 259.241 243.257, 258.466 236.801 L 257.782 231.101 261.555 232.143 C 263.680 232.730, 271.258 233.017, 278.914 232.800 C 291.027 232.458, 293.180 232.120, 298.768 229.688 C 315.377 222.458, 324 214.819, 324 207.334 C 324 204.766, 323.399 205.175, 315.619 213.034 C 298.130 230.699, 286.044 233.781, 267.709 225.250 L 261.698 222.454 254.626 224.826 C 236.772 230.814, 226.546 231.382, 214.166 227.072 C 203.792 223.462, 196.176 218.540, 188.750 210.647 C 185.588 207.286, 183 205.113, 183 205.818 M 170.109 227.500 C 169.423 229.150, 166.894 235.535, 164.488 241.689 C 162.082 247.844, 159.380 254.298, 158.483 256.032 C 157.586 257.767, 157.097 259.431, 157.397 259.730 C 158.302 260.635, 164.008 253.918, 166.463 249.058 C 169.125 243.787, 172.349 230.261, 171.760 226.837 C 171.373 224.595, 171.306 224.622, 170.109 227.500 M 338.442 227.250 C 338.705 228.488, 339.441 232.200, 340.076 235.500 C 341.766 244.277, 344.554 250.968, 348.410 255.500 C 350.282 257.700, 352.014 259.275, 352.258 259 C 352.893 258.285, 339.657 225.028, 338.731 225.013 C 338.308 225.006, 338.178 226.012, 338.442 227.250 M 188.607 229.582 C 188.273 230.452, 188.004 233.714, 188.010 236.832 C 188.029 247.942, 194.104 256.056, 207.390 262.718 L 213.280 265.672 218.390 262.854 C 225.273 259.058, 226.702 259.213, 223.503 263.407 C 220.546 267.284, 219.452 272.265, 220.422 277.438 C 221.087 280.982, 221.093 280.985, 223.630 279.323 C 225.796 277.904, 226.303 277.868, 227.070 279.079 C 227.565 279.861, 227.976 281.261, 227.985 282.191 C 228.005 284.419, 229.886 285.514, 231.287 284.113 C 232.995 282.405, 234.711 282.786, 235.290 285 C 235.858 287.174, 239.416 287.755, 240.584 285.864 C 241.049 285.111, 241.882 285.517, 243.050 287.067 C 244.589 289.106, 245.137 289.259, 247.331 288.259 C 249.343 287.342, 250.089 287.402, 251.047 288.556 C 252.447 290.244, 255.595 290.465, 256.536 288.941 C 256.916 288.326, 258.436 288.156, 260.162 288.536 C 262.249 288.994, 263.683 288.692, 264.977 287.521 C 266.619 286.035, 266.912 286.021, 267.680 287.393 C 268.860 289.500, 273 288.348, 273 285.913 C 273 284.405, 273.684 284.101, 276.680 284.280 C 279.853 284.470, 280.448 284.156, 280.999 282 C 281.634 279.516, 282.937 279.136, 286.208 280.480 C 287.511 281.015, 288.097 280.508, 288.680 278.341 C 290.226 272.588, 289.610 266.654, 287.100 263.135 L 284.700 259.770 287.100 260.499 C 288.420 260.900, 290.903 262.077, 292.618 263.114 C 296.844 265.670, 298.239 265.521, 305.347 261.750 C 317.627 255.236, 322.796 246.719, 321.714 234.783 C 321.418 231.515, 320.921 228.588, 320.610 228.277 C 320.299 227.966, 318.350 228.356, 316.279 229.145 C 312.809 230.466, 312.537 230.852, 312.815 234.072 C 313.391 240.765, 309.157 247.302, 301.790 251.092 C 296.955 253.578, 287.605 253.596, 278.728 251.134 C 275.028 250.108, 272 249.559, 272 249.913 C 272 250.268, 273.338 253.695, 274.973 257.529 C 280.013 269.348, 279 272.394, 268.841 275.965 C 257.291 280.024, 246.702 279.285, 236.566 273.711 C 230.934 270.614, 230.835 267.753, 235.994 257.113 C 238.230 252.501, 239.934 248.606, 239.780 248.459 C 239.626 248.312, 235.675 249.489, 231 251.075 C 221.315 254.359, 217.092 254.650, 210.879 252.457 C 202.682 249.565, 197 242.088, 197 234.193 C 197 231.014, 196.544 230.113, 194.453 229.161 C 190.990 227.583, 189.328 227.702, 188.607 229.582 M 202.745 267.588 C 201.209 269.124, 210.409 315.062, 213.570 321.642 C 215.914 326.519, 224.848 335.126, 237.094 344.306 C 241.979 347.967, 243.054 347.699, 239.316 343.750 C 232.809 336.875, 232.164 331.161, 237.241 325.378 C 241.775 320.214, 247.098 318.032, 255 318.098 C 264.613 318.178, 269.192 320.313, 274.295 327.094 C 277.983 331.995, 277.868 336.425, 273.913 341.803 C 272.216 344.111, 271.228 346, 271.719 346 C 272.731 346, 283.201 337.381, 290.116 330.856 C 297.707 323.692, 298.942 319.953, 303.445 290.500 C 304.874 281.150, 306.295 272.262, 306.601 270.750 C 307.024 268.663, 306.773 268, 305.558 268 C 303.467 268, 302.446 270.538, 299.989 281.831 C 297.755 292.101, 295.797 297.462, 293.254 300.272 C 292.335 301.287, 288.253 304.193, 284.182 306.731 C 277.934 310.625, 276.488 311.161, 274.904 310.172 C 272.520 308.683, 238.411 308.526, 237.500 310 C 236.291 311.956, 233.140 310.938, 226.366 306.403 C 216.744 299.959, 214.383 297.123, 212.112 289.275 C 211.034 285.549, 209.220 279.286, 208.080 275.359 C 206.269 269.117, 204.213 266.121, 202.745 267.588 M 283.409 292.376 C 282.562 294.584, 283.689 295.711, 285.217 294.183 C 286.119 293.281, 286.122 292.722, 285.233 291.833 C 284.343 290.943, 283.909 291.072, 283.409 292.376 M 227 292.992 C 227 294.811, 228.975 298, 230.102 298 C 231.900 298, 230.631 292.542, 228.750 292.185 C 227.787 292.003, 227 292.366, 227 292.992 M 276 296.500 C 276 298.333, 276.533 299, 278 299 C 279.467 299, 280 298.333, 280 296.500 C 280 294.667, 279.467 294, 278 294 C 276.533 294, 276 294.667, 276 296.500 M 234 296.878 C 234 297.910, 234.698 299.334, 235.550 300.042 C 236.824 301.099, 237.366 301.063, 238.587 299.842 C 240.611 297.818, 239.334 295, 236.393 295 C 234.719 295, 234 295.564, 234 296.878 M 243.200 297.200 C 240.713 299.687, 243.147 302.466, 246.750 301.254 C 248.535 300.653, 248.297 297.328, 246.418 296.607 C 244.404 295.834, 244.602 295.798, 243.200 297.200 M 259.537 297.606 C 257.639 299.504, 259.074 302, 262.063 302 C 264.546 302, 265.308 300.444, 264.011 298.021 C 262.705 295.580, 261.659 295.484, 259.537 297.606 M 267.667 296.667 C 267.300 297.033, 267 298.158, 267 299.167 C 267 300.444, 267.741 301, 269.441 301 C 272.265 301, 273.263 299.848, 272.396 297.590 C 271.782 295.989, 268.906 295.428, 267.667 296.667 M 250.380 298.452 C 249.559 300.591, 250.799 302, 253.500 302 C 256.268 302, 257.258 300.835, 256.396 298.590 C 255.632 296.600, 251.130 296.496, 250.380 298.452 M 329.155 353.465 C 321.329 369.848, 307.921 389.578, 283.715 420.331 C 277.727 427.938, 273.020 434.354, 273.256 434.589 C 274.168 435.501, 296.879 418.475, 303.822 411.673 C 321.483 394.373, 339.807 367.491, 344.337 352.238 C 345.883 347.031, 345.875 346.964, 343.555 345.444 C 342.266 344.600, 339.647 343.655, 337.735 343.344 L 334.259 342.780 329.155 353.465 M 301.850 347.788 C 298.128 350.775, 281.070 366.424, 266.036 380.643 C 264.149 382.428, 263.848 383.248, 264.748 384.148 C 266.294 385.694, 273.203 382.141, 283.711 374.396 C 295.140 365.973, 304.314 356.430, 306.487 350.704 C 308.987 344.116, 307.550 343.212, 301.850 347.788 M 204 348.066 C 204 353.956, 209.050 360.374, 223.929 373.390 C 241 388.326, 271.434 411, 274.408 411 C 278.318 411, 293.466 391.630, 297.478 381.500 L 299.063 377.500 294.936 382.240 C 288.837 389.244, 278.688 397, 275.620 397 C 272.609 397, 256.575 387.723, 245.747 379.715 C 238.226 374.153, 231.826 368.505, 215.785 353.275 C 210.991 348.724, 206.379 345, 205.535 345 C 204.489 345, 204 345.976, 204 348.066 M 141.053 353.623 C 145.850 364.815, 159.512 382.465, 171.783 393.324 C 176.669 397.648, 179 398.951, 179 397.357 C 179 397.003, 175.027 391.266, 170.170 384.607 C 165.314 377.948, 158.122 367.738, 154.188 361.919 C 147.549 352.097, 144.265 349, 140.488 349 C 139.347 349, 139.456 349.899, 141.053 353.623 M 357.889 356.250 C 355.202 361.598, 350.318 369.081, 332.756 394.762 C 327.092 403.045, 330.760 401.251, 341.590 390.442 C 353.221 378.831, 361.241 368.816, 365.721 360.307 L 368.455 355.113 366.053 352.557 C 364.732 351.150, 363.061 350, 362.340 350 C 361.619 350, 359.616 352.813, 357.889 356.250 M 174.032 359.122 C 171.574 360.212, 169.385 361.282, 169.167 361.500 C 168.367 362.299, 176.273 375.224, 183.505 384.941 C 192.686 397.278, 202.877 408.132, 214 417.418 C 222.994 424.927, 238.255 436, 239.610 436 C 240.054 436, 238.590 434.087, 236.358 431.750 C 224.909 419.762, 203.602 392.266, 187.447 368.633 C 183.076 362.239, 179.275 357.037, 179 357.074 C 178.725 357.111, 176.489 358.033, 174.032 359.122 M 220.099 387 C 223.480 393.865, 261.814 429, 265.922 429 C 268.239 429, 266.526 427.178, 256 418.449 C 242.912 407.596, 230.015 396.037, 223.699 389.500 C 220.575 386.267, 219.303 385.384, 220.099 387" stroke="none" fill="currentColor" fill-rule="evenodd"/>
</svg>